<svg xmlns="http://www.w3.org/2000/svg" viewBox="0 0 80.01 80"><title>Asset 29</title><g id="Layer_2" data-name="Layer 2"><g id="Layer_1-2" data-name="Layer 1"><path d="M68.5,13l-.07.08A39.26,39.26,0,0,1,13,68.42L13,68.5A39.27,39.27,0,0,0,68.5,13Z" style="fill:#dbab56"/><path d="M11.5,67A39.27,39.27,0,0,1,67,11.5Z" style="fill:#f7d27f"/><path d="M11.5,67A39.27,39.27,0,0,0,67,11.5Z" style="fill:#eac06c"/><path d="M15,63.57A34.37,34.37,0,0,1,63.57,15Z" style="fill:#efb30c"/><path d="M15,63.57A34.37,34.37,0,0,0,63.57,15Z" style="fill:#e5a300"/><path d="M16.94,16.94a34.35,34.35,0,0,1,46.54-1.88l.09-.09A34.37,34.37,0,0,0,15,63.57l.09-.09A34.35,34.35,0,0,1,16.94,16.94Z" style="fill:#e5a300"/><path d="M54.12,24.42l-3.71,3.72a15.58,15.58,0,0,0-3.26-2.52,15.75,15.75,0,0,0-19,24.78l-3.71,3.72a21,21,0,0,1,21.2-34.88c1.21-2.09,5.5-5.49,7.66-4.25s1.35,6.66.14,8.75C53.67,24,53.89,24.2,54.12,24.42Z" style="fill:#e6e6e6"/><path d="M35,43.51a6,6,0,0,1,7.24-9.44,5.63,5.63,0,0,1,1.24,1Z" style="fill:#e6e6e6"/><path d="M35,43.51,43.51,35A6,6,0,1,1,35,43.51Z" style="fill:#ccc"/><path d="M28.14,50.4a15.6,15.6,0,0,0,3.25,2.52,15.75,15.75,0,0,0,19-24.78l3.71-3.72A21,21,0,0,1,32.88,59.29h0c-1.2,2.09-5.49,5.49-7.65,4.25s-1.35-6.66-.14-8.75h0c-.25-.22-.47-.46-.7-.69Z" style="fill:#ccc"/></g></g></svg>