<svg xmlns="http://www.w3.org/2000/svg" viewBox="0 0 300.02 300"><title>medal-objective</title><g id="Layer_2" data-name="Layer 2"><g id="Layer_1-2" data-name="Layer 1"><path d="M256.89,48.6l-.29.29A147.22,147.22,0,0,1,48.91,256.58l-.28.29A147.27,147.27,0,0,0,256.89,48.6Z" style="fill:#2d5437"/><path d="M43.13,251.4A147.27,147.27,0,0,1,251.4,43.13Z" style="fill:#509b67"/><path d="M43.13,251.4A147.27,147.27,0,0,0,251.4,43.13Z" style="fill:#3a7049"/><path d="M56.15,238.38A128.86,128.86,0,0,1,238.38,56.15Z" style="fill:#5fbe80"/><path d="M56.15,238.38A128.86,128.86,0,0,0,238.38,56.15Z" style="fill:#509b67"/><path d="M63.51,63.51a128.85,128.85,0,0,1,174.55-7l.32-.32A128.86,128.86,0,0,0,56.15,238.38l.32-.32A128.85,128.85,0,0,1,63.51,63.51Z" style="fill:#3a7049"/><path d="M141.94,105.87c-1.33-3.29-5.64-4.74-10.23-3.74l-9.44-42.29a1.44,1.44,0,0,0-2.8.63l.19.83L103.12,72.73,123,76l6,27c-5.17,2.25-8.12,7-6.6,10.76s7.2,5.2,12.6,3S143.5,109.73,141.94,105.87Zm-8.26,7.72c-3.23,1.31-6.57.59-7.45-1.6-.81-2,.71-4.51,3.42-5.93l.58,2.6c-.63.55-.94,1.21-.72,1.74.32.8,1.69,1,3.06.45s2.21-1.65,1.89-2.45a1.55,1.55,0,0,0-1.52-.76l-.56-2.5c2.54-.42,4.83.37,5.54,2.13C138.8,109.46,136.9,112.29,133.68,113.59Z" style="fill:#3a7049"/><path d="M193.35,101.18l-23.08,23.08a10.78,10.78,0,0,1,2.22.39c6.26,1.83,9.69,9,7.64,16s-8.78,11.2-15,9.37c-5.17-1.51-8.4-6.66-8.22-12.35L119,175.57a14.68,14.68,0,0,1,2,.67c5.19,2.17,8.09,7.06,6.48,10.9s-7.13,5.21-12.32,3a12.06,12.06,0,0,1-5.84-4.92L99,195.54a67.19,67.19,0,1,0,94.36-94.36ZM136.92,213.89c-1,1.65-3.95,1.7-6.68.11s-4.16-4.22-3.2-5.87,4-1.7,6.69-.11S137.89,212.24,136.92,213.89Zm17.57-38c-2.29,1.87-6.05,1-8.42-1.85s-2.42-6.74-.14-8.61,6-1,8.41,1.85S156.77,174.07,154.49,175.93Zm18.74,29.26c-3.63,2.38-8,2.2-9.69-.42s-.17-6.67,3.46-9.06,8-2.2,9.69.42S176.86,202.8,173.23,205.19Zm21.53-26.64c-5.92,4.27-13.81,3.44-17.64-1.86s-2.12-13.05,3.79-17.32,13.81-3.44,17.64,1.86S200.67,174.28,194.76,178.55Zm14.36-30.13c-1.84.52-4-1.52-4.89-4.56s-.06-5.92,1.78-6.44,4,1.52,4.89,4.56S211,147.9,209.12,148.42Z" style="fill:#2d5437"/><path d="M151.77,86.74c-7.58,0-14.86,1.28-19.58,3.13l1.9,8.5c4.16-.64,10,1.62,11.88,6.33,2.29,5.68-2,12.75-9.5,15.8s-15.52.91-17.81-4.77c-2.21-5.48,1.68-12.24,6.49-14.48l-1.86-8.31c-22.12,9.13-38.74,33-38.74,61A66.89,66.89,0,0,0,99,195.54l10.29-10.29a6.71,6.71,0,0,1-.64-6c1.41-3.35,5.78-4.81,10.32-3.69l37.9-37.9a15.06,15.06,0,0,1,.57-3.65c1.81-6.18,7.27-10.17,12.84-9.76l23.08-23.08A66.89,66.89,0,0,0,151.77,86.74ZM98.42,166.08a3.46,3.46,0,1,1,3.46-3.46A3.46,3.46,0,0,1,98.42,166.08Zm8.72-46.68a3.47,3.47,0,1,1,3.46-3.47A3.46,3.46,0,0,1,107.14,119.4ZM131,151.6c-4.3,4.92-12.23,5-17.73.23s-6.48-12.67-2.19-17.59,12.23-5,17.73-.23S135.3,146.68,131,151.6Zm36.28-39.11c-5.15-.48-9-4.46-8.57-8.88s4.93-7.61,10.07-7.13,9,4.46,8.57,8.88S172.44,113,167.29,112.49Z" style="fill:#3a7049"/></g></g></svg>