<svg xmlns="http://www.w3.org/2000/svg" viewBox="0 0 300.02 300"><title>medal_cycle</title><g id="Layer_2" data-name="Layer 2"><g id="Layer_1-2" data-name="Layer 1"><g id="Artwork_113" data-name="Artwork 113"><path d="M256.89,48.6l-.29.29A147.23,147.23,0,0,1,48.91,256.58l-.28.29A147.27,147.27,0,0,0,256.89,48.6" style="fill:#15556b"/><path d="M43.13,251.4A147.27,147.27,0,0,1,251.4,43.13Z" style="fill:#2880b2"/><path d="M43.13,251.4A147.27,147.27,0,0,0,251.4,43.13Z" style="fill:#1b6687"/><path d="M56.15,238.38A128.86,128.86,0,0,1,238.38,56.15Z" style="fill:#49a9ea"/><path d="M56.15,238.38A128.86,128.86,0,0,0,238.38,56.15Z" style="fill:#2880b2"/><path d="M63.51,63.51a128.85,128.85,0,0,1,174.55-7l.32-.32A128.86,128.86,0,0,0,56.15,238.38l.32-.32a128.85,128.85,0,0,1,7-174.55" style="fill:#1b6687"/><path d="M86,95H200.15l3-3H195.9V84.55a.6.6,0,0,0-.59-.61H178.4a.6.6,0,0,0-.59.61v7.39H123.56V84.55a.6.6,0,0,0-.59-.61H106.06a.6.6,0,0,0-.59.61v7.39H86A10.5,10.5,0,0,0,75.64,102.6v8h0v95.93a11,11,0,0,0,4.36,8.6l15.41-15.42a4,4,0,0,1,1-7.84,3.91,3.91,0,0,1,3.76,3.07l87.37-87.38h-109v-5A7.52,7.52,0,0,1,86,95m64.7,35.61a4,4,0,1,1-3.87,4,3.94,3.94,0,0,1,3.87-4m-18.08,0a4,4,0,1,1-3.88,4,3.93,3.93,0,0,1,3.88-4m0,21.32a4,4,0,1,1-3.88,4,3.93,3.93,0,0,1,3.88-4m-18.09-21.32a4,4,0,1,1-3.87,4,3.94,3.94,0,0,1,3.87-4m0,21.32a4,4,0,1,1-3.87,4,3.94,3.94,0,0,1,3.87-4m0,18.66a4,4,0,1,1-3.87,4,3.94,3.94,0,0,1,3.87-4m-18.08-40a4,4,0,1,1-3.88,4,3.93,3.93,0,0,1,3.88-4m0,21.32a4,4,0,1,1-3.88,4,3.93,3.93,0,0,1,3.88-4m0,18.66a4,4,0,1,1-3.88,4,3.93,3.93,0,0,1,3.88-4" style="fill:#1b6687"/><path d="M225.5,110V102.6a10.5,10.5,0,0,0-10.34-10.66h-12l-3,3h15a7.52,7.52,0,0,1,7.4,7.63v5h-35l-87.37,87.38a4.08,4.08,0,0,1,.11.93,3.93,3.93,0,0,1-3.87,4,3.81,3.81,0,0,1-1-.16L80,215.13a10.07,10.07,0,0,0,6.09,2.06H215.28a10.33,10.33,0,0,0,10.22-10.66V110Zm-111,89.88a4,4,0,1,1,3.88-4,3.93,3.93,0,0,1-3.88,4m18.09,0a4,4,0,1,1,3.88-4,3.94,3.94,0,0,1-3.88,4m0-21.32a4,4,0,1,1,3.88-4,3.94,3.94,0,0,1-3.88,4m18.09,21.32a4,4,0,1,1,3.87-4,3.94,3.94,0,0,1-3.87,4m0-21.32a4,4,0,1,1,3.87-4,3.94,3.94,0,0,1-3.87,4m0-18.65a4,4,0,1,1,3.87-4,3.94,3.94,0,0,1-3.87,4m18.08,40a4,4,0,1,1,3.88-4,3.93,3.93,0,0,1-3.88,4m0-21.32a4,4,0,1,1,3.88-4,3.93,3.93,0,0,1-3.88,4m0-18.65a4,4,0,1,1,3.88-4,3.93,3.93,0,0,1-3.88,4m0-21.32a4,4,0,1,1,3.88-4,3.93,3.93,0,0,1-3.88,4m18.09,61.29a4,4,0,1,1,3.87-4,3.94,3.94,0,0,1-3.87,4m0-21.32a4,4,0,1,1,3.87-4,3.94,3.94,0,0,1-3.87,4m0-18.65a4,4,0,1,1,3.87-4,3.94,3.94,0,0,1-3.87,4m0-21.32a4,4,0,1,1,3.87-4,3.94,3.94,0,0,1-3.87,4m18.08,61.29a4,4,0,1,1,3.88-4,3.93,3.93,0,0,1-3.88,4m0-21.32a4,4,0,1,1,3.88-4,3.93,3.93,0,0,1-3.88,4m0-18.65a4,4,0,1,1,3.88-4,3.93,3.93,0,0,1-3.88,4m0-21.32a4,4,0,1,1,3.88-4,3.93,3.93,0,0,1-3.88,4" style="fill:#15556b"/></g></g></g></svg>