<svg xmlns="http://www.w3.org/2000/svg" viewBox="0 0 300.02 300"><title>medal_KR</title><g id="Layer_2" data-name="Layer 2"><g id="Layer_1-2" data-name="Layer 1"><path d="M256.89,48.6l-.29.29A147.22,147.22,0,0,1,48.91,256.58l-.28.29A147.27,147.27,0,0,0,256.89,48.6Z" style="fill:#634954"/><path d="M43.13,251.4A147.27,147.27,0,0,1,251.4,43.13Z" style="fill:#c18797"/><path d="M43.13,251.4A147.27,147.27,0,0,0,251.4,43.13Z" style="fill:#916977"/><path d="M56.15,238.38A128.86,128.86,0,0,1,238.38,56.15Z" style="fill:#eca2b2"/><path d="M56.15,238.38A128.86,128.86,0,0,0,238.38,56.15Z" style="fill:#c18797"/><path d="M63.51,63.51a128.85,128.85,0,0,1,174.55-7l.32-.32A128.86,128.86,0,0,0,56.15,238.38l.32-.32A128.85,128.85,0,0,1,63.51,63.51Z" style="fill:#916977"/><path d="M199.84,94.65V87.54h3.55a3.45,3.45,0,0,1,1.39.28,3.68,3.68,0,0,1,1.13.76Z" style="fill:#916977"/><path d="M190.25,104.25l-7.14-6.84v7.8a1.16,1.16,0,0,1-.33.83,1.12,1.12,0,0,1-.85.35,1.2,1.2,0,0,1-1.18-1.18V86.36a1.09,1.09,0,0,1,.35-.85,1.13,1.13,0,0,1,.83-.34,1.15,1.15,0,0,1,1.18,1.19v7.79l9-8.66a1.09,1.09,0,0,1,.83-.33,1.22,1.22,0,0,1,.84.36,1.18,1.18,0,0,1,.33.86,1.23,1.23,0,0,1-.36.84l-8.93,8.55,7.07,6.79,5.52-5.51V86.36a1.15,1.15,0,0,1,.35-.84,1.18,1.18,0,0,1,.86-.35h4.73a5.92,5.92,0,0,1,4.2,1.73l6.62-6.62a25.21,25.21,0,1,0-35.33,35.34Z" style="fill:#916977"/><path d="M138.72,195.65a2.29,2.29,0,0,1-.12-4.57,72.19,72.19,0,0,0,11.27-1.47,2.28,2.28,0,0,1,1,4.46,75.14,75.14,0,0,1-12,1.57Zm23.16-5.28A2.28,2.28,0,0,1,161,186a47.65,47.65,0,0,0,9.9-6,2.28,2.28,0,1,1,2.82,3.59,52,52,0,0,1-10.85,6.54A2.24,2.24,0,0,1,161.88,190.37Zm18.91-14.88a2.25,2.25,0,0,1-1.39-.48,2.28,2.28,0,0,1-.42-3.2,52.74,52.74,0,0,0,6-10,2.28,2.28,0,1,1,4.14,1.92,57.71,57.71,0,0,1-6.54,10.84A2.3,2.3,0,0,1,180.79,175.49Zm10.33-21.88a2.77,2.77,0,0,1-.56-.07,2.28,2.28,0,0,1-1.65-2.77,56.86,56.86,0,0,0,1.77-11.55A2.25,2.25,0,0,1,193,137a2.29,2.29,0,0,1,2.25,2.31,61.2,61.2,0,0,1-1.92,12.59A2.28,2.28,0,0,1,191.12,153.61Z" style="fill:#634954"/><path d="M103.33,191.16h0" style="fill:#c18797"/><line x1="97.26" y1="197.24" x2="97.26" y2="197.24" style="fill:#c18797"/><path d="M76.3,218.2l11.37-11.37,1.9,1.82a1.17,1.17,0,0,0,1.66-.05,1.08,1.08,0,0,0,.34-.84,1.19,1.19,0,0,0-.36-.83l-1.86-1.78,5.51-5.52v8.16a1.14,1.14,0,0,0,.35.83,1.15,1.15,0,0,0,.86.35,1.13,1.13,0,0,0,.84-.35,1.14,1.14,0,0,0,.35-.83v-8.15h1.15l5.22,8.74a1.24,1.24,0,0,0,.45.43,1.15,1.15,0,0,0,.6.16,1.2,1.2,0,0,0,1.18-1.18,1.25,1.25,0,0,0-.16-.62l-4.52-7.57a5.77,5.77,0,0,0,1.95-.43,6,6,0,0,0,1.9-1.28,6.14,6.14,0,0,0,1.28-1.88,5.94,5.94,0,0,0,0-4.63A6.26,6.26,0,0,0,105,189.5l0,0,6.62-6.61A25.21,25.21,0,0,1,76.3,218.2Z" style="fill:#634954"/><path d="M103.33,191.16l-6.07,6.08h3.55a3.45,3.45,0,0,0,1.38-.29,3.6,3.6,0,0,0,1.15-.76,3.68,3.68,0,0,0,.76-1.13,3.36,3.36,0,0,0,.28-1.37,3.45,3.45,0,0,0-.28-1.39,3.61,3.61,0,0,0-.76-1.14Z" style="fill:#634954"/><path d="M94.86,199.63V188.94a1.16,1.16,0,0,1,.35-.84,1.19,1.19,0,0,1,.86-.35h4.74a5.83,5.83,0,0,1,2.32.47,6,6,0,0,1,1.88,1.26l6.62-6.61A25.21,25.21,0,1,0,76.3,218.2l11.37-11.37L80.53,200v7.8a1.13,1.13,0,0,1-.34.83,1.08,1.08,0,0,1-.84.35,1.11,1.11,0,0,1-.84-.35,1.14,1.14,0,0,1-.35-.83V188.94a1.18,1.18,0,0,1,1.19-1.19,1.11,1.11,0,0,1,.84.34,1.13,1.13,0,0,1,.34.85v7.8l9-8.66a1.06,1.06,0,0,1,.83-.34,1.19,1.19,0,0,1,.83.36,1.15,1.15,0,0,1,.34.86,1.22,1.22,0,0,1-.36.84l-8.93,8.55,7.07,6.8Z" style="fill:#916977"/><path d="M103.33,191.16l-6.07,6.08v-7.12h3.55a3.44,3.44,0,0,1,1.38.28A3.61,3.61,0,0,1,103.33,191.16Z" style="fill:#916977"/><path d="M190.25,104.25l-11.37,11.37a25.21,25.21,0,0,0,35.33-35.34l-6.62,6.62s0,0,0,0a6.09,6.09,0,0,1,1.28,1.88,5.94,5.94,0,0,1,0,4.63,6,6,0,0,1-1.28,1.88,5.9,5.9,0,0,1-1.89,1.28,5.82,5.82,0,0,1-1.95.43l4.52,7.57a1.36,1.36,0,0,1,.16.62,1.14,1.14,0,0,1-.35.83,1.1,1.1,0,0,1-.83.35,1.18,1.18,0,0,1-.61-.16,1.14,1.14,0,0,1-.44-.43L201,97.06h-1.16v8.15a1.2,1.2,0,0,1-1.18,1.18,1.2,1.2,0,0,1-1.21-1.18V97.05l-5.52,5.51,1.86,1.79a1.19,1.19,0,0,1,.36.83,1.12,1.12,0,0,1-.33.84,1.08,1.08,0,0,1-.86.37,1.12,1.12,0,0,1-.81-.32Z" style="fill:#634954"/><path d="M199.84,94.65l6.07-6.07h0a3.64,3.64,0,0,1,.77,1.14,3.45,3.45,0,0,1,.28,1.39,3.36,3.36,0,0,1-.28,1.37,3.84,3.84,0,0,1-.77,1.13,3.67,3.67,0,0,1-2.53,1h-3.55Z" style="fill:#634954"/></g></g></svg>