<svg xmlns="http://www.w3.org/2000/svg" viewBox="0 0 1270.79 618.21"><title>stars</title><g id="Layer_2" data-name="Layer 2"><g id="Layer_3" data-name="Layer 3"><g style="opacity:0.2"><circle cx="13.3" cy="107.59" r="4.44" style="fill:#8aa7bc"/><circle cx="717.45" cy="305.6" r="2.22" style="fill:#8aa7bc"/><circle cx="1268.57" cy="74.9" r="2.22" style="fill:#8aa7bc"/><circle cx="18.86" cy="267.5" r="4.44" style="fill:#8aa7bc"/><circle cx="107.09" cy="194.44" r="4.44" style="fill:#8aa7bc"/><circle cx="54.09" cy="4.44" r="4.44" style="fill:#8aa7bc"/><circle cx="1232.25" cy="9.15" r="4.44" style="fill:#8aa7bc"/><circle cx="1228.7" cy="350.94" r="4.44" style="fill:#8aa7bc"/><circle cx="959.14" cy="511.37" r="4.44" style="fill:#8aa7bc"/><circle cx="939.63" cy="296.08" r="2.22" style="fill:#8aa7bc"/><circle cx="604.79" cy="454.88" r="4.44" style="fill:#8aa7bc"/><circle cx="1043.5" cy="582.36" r="2.22" style="fill:#8aa7bc"/><circle cx="655.91" cy="12.75" r="4.44" style="fill:#8aa7bc"/><circle cx="1185.97" cy="592.36" r="4.44" style="fill:#8aa7bc"/><circle cx="1130.16" cy="438.16" r="4.44" style="fill:#8aa7bc"/><circle cx="827.07" cy="376.36" r="4.44" style="fill:#8aa7bc"/><circle cx="1233.14" cy="181.12" r="2.22" style="fill:#8aa7bc"/><circle cx="525.39" cy="62.69" r="2.22" style="fill:#8aa7bc"/><circle cx="1227.49" cy="442.17" r="2.22" style="fill:#8aa7bc"/><circle cx="339.74" cy="603.61" r="4.44" style="fill:#8aa7bc"/><circle cx="396.47" cy="510.22" r="4.44" style="fill:#8aa7bc"/><circle cx="156.11" cy="568.29" r="4.44" style="fill:#8aa7bc"/><circle cx="52.54" cy="408.74" r="2.22" style="fill:#8aa7bc"/><circle cx="223.75" cy="284.77" r="2.22" style="fill:#8aa7bc"/><circle cx="265.1" cy="474.58" r="2.22" style="fill:#8aa7bc"/><circle cx="4.44" cy="603.46" r="4.44" style="fill:#8aa7bc"/><circle cx="366.49" cy="266.65" r="2.22" style="fill:#8aa7bc"/><circle cx="213.27" cy="119.85" r="2.22" style="fill:#8aa7bc"/><circle cx="387.92" cy="40.47" r="2.22" style="fill:#8aa7bc"/><circle cx="767.52" cy="38.25" r="2.22" style="fill:#8aa7bc"/><circle cx="266.49" cy="16.21" r="2.22" style="fill:#8aa7bc"/><circle cx="104.51" cy="64.9" r="2.22" style="fill:#8aa7bc"/><circle cx="410.57" cy="373.93" r="2.22" style="fill:#8aa7bc"/><circle cx="1076.83" cy="41.98" r="2.22" style="fill:#8aa7bc"/><circle cx="490.57" cy="263.93" r="2.22" style="fill:#8aa7bc"/><circle cx="560.48" cy="355.1" r="2.22" style="fill:#8aa7bc"/><circle cx="970.63" cy="17.04" r="2.22" style="fill:#8aa7bc"/><circle cx="1142.25" cy="248.99" r="4.44" style="fill:#8aa7bc"/><circle cx="856.61" cy="64.91" r="4.44" style="fill:#8aa7bc"/><circle cx="687.41" cy="196.91" r="4.44" style="fill:#8aa7bc"/><circle cx="828.41" cy="244.91" r="4.44" style="fill:#8aa7bc"/><circle cx="817.93" cy="146.97" r="2.22" style="fill:#8aa7bc"/><circle cx="955.4" cy="169.19" r="2.22" style="fill:#8aa7bc"/><circle cx="575.8" cy="171.41" r="2.22" style="fill:#8aa7bc"/><circle cx="1076.83" cy="193.44" r="2.22" style="fill:#8aa7bc"/><circle cx="266.49" cy="167.67" r="2.22" style="fill:#8aa7bc"/><circle cx="372.69" cy="192.62" r="2.22" style="fill:#8aa7bc"/><circle cx="486.71" cy="144.75" r="4.44" style="fill:#8aa7bc"/><circle cx="1268.57" cy="507.93" r="2.22" style="fill:#8aa7bc"/><circle cx="86.81" cy="475.71" r="4.44" style="fill:#8aa7bc"/><circle cx="279.43" cy="357.95" r="2.22" style="fill:#8aa7bc"/><circle cx="824.85" cy="515.99" r="2.22" style="fill:#8aa7bc"/><circle cx="514.91" cy="552.37" r="4.44" style="fill:#8aa7bc"/><circle cx="473.3" cy="476.87" r="2.22" style="fill:#8aa7bc"/><circle cx="764.23" cy="464.11" r="4.44" style="fill:#8aa7bc"/><circle cx="796.59" cy="613.77" r="4.44" style="fill:#8aa7bc"/><circle cx="658.97" cy="576.06" r="4.44" style="fill:#8aa7bc"/><circle cx="195.86" cy="418.49" r="2.22" style="fill:#8aa7bc"/></g></g></g></svg>